<?xml version="1.0" encoding="UTF-8" standalone="no"?>
<!DOCTYPE svg PUBLIC "-//W3C//DTD SVG 1.1//EN"
 "http://www.w3.org/Graphics/SVG/1.1/DTD/svg11.dtd">
<!-- Generated by graphviz version 2.43.0 (0)
 -->
<!-- Title: %3 Pages: 1 -->
<svg width="343pt" height="244pt"
 viewBox="0.00 0.00 342.75 244.05" xmlns="http://www.w3.org/2000/svg" xmlns:xlink="http://www.w3.org/1999/xlink">
<g id="graph0" class="graph" transform="scale(1 1) rotate(0) translate(4 240.05)">
<title>%3</title>
<polygon fill="white" stroke="transparent" points="-4,4 -4,-240.05 338.75,-240.05 338.75,4 -4,4"/>
<!-- SLL -->
<g id="node1" class="node">
<title>SLL</title>
<polygon fill="lightgray" stroke="black" points="134,-220.3 102,-220.3 102,-202.3 134,-202.3 134,-220.3"/>
<text text-anchor="middle" x="118" y="-209.1" font-family="Times,serif" font-size="9.00">SLL</text>
</g>
<!-- 712 -->
<g id="node10" class="node">
<title>712</title>
<ellipse fill="white" stroke="black" cx="118" cy="-125.8" rx="21.43" ry="21.43"/>
<text text-anchor="middle" x="118" y="-123.6" font-family="Times,serif" font-size="9.00">712</text>
</g>
<!-- SLL&#45;&gt;712 -->
<g id="edge1" class="edge">
<title>SLL&#45;&gt;712</title>
<path fill="none" stroke="green" stroke-width="0.27" d="M118,-202.29C118,-191.98 118,-173.46 118,-157.35"/>
<polygon fill="green" stroke="green" stroke-width="0.27" points="121.5,-157.22 118,-147.22 114.5,-157.22 121.5,-157.22"/>
</g>
<!-- 720 -->
<g id="node11" class="node">
<title>720</title>
<ellipse fill="white" stroke="black" cx="178" cy="-125.8" rx="21.43" ry="21.43"/>
<text text-anchor="middle" x="178" y="-123.6" font-family="Times,serif" font-size="9.00">720</text>
</g>
<!-- SLL&#45;&gt;720 -->
<g id="edge4" class="edge">
<title>SLL&#45;&gt;720</title>
<path fill="none" stroke="green" stroke-width="0.31" d="M123.75,-202.29C132,-190.82 147.53,-169.2 159.87,-152.03"/>
<polygon fill="green" stroke="green" stroke-width="0.31" points="162.99,-153.69 165.98,-143.53 157.3,-149.61 162.99,-153.69"/>
</g>
<!-- SL -->
<g id="node2" class="node">
<title>SL</title>
<polygon fill="lightgray" stroke="black" points="179.5,-220.3 152.5,-220.3 152.5,-202.3 179.5,-202.3 179.5,-220.3"/>
<text text-anchor="middle" x="166" y="-209.1" font-family="Times,serif" font-size="9.00">SL</text>
</g>
<!-- SL&#45;&gt;720 -->
<g id="edge6" class="edge">
<title>SL&#45;&gt;720</title>
<path fill="none" stroke="green" stroke-width="1.85" d="M167.15,-202.29C168.64,-191.91 171.33,-173.22 173.65,-157.04"/>
<polygon fill="green" stroke="green" stroke-width="1.85" points="177.16,-157.27 175.12,-146.87 170.23,-156.27 177.16,-157.27"/>
</g>
<!-- SC -->
<g id="node3" class="node">
<title>SC</title>
<polygon fill="lightgray" stroke="black" points="28,-220.3 0,-220.3 0,-202.3 28,-202.3 28,-220.3"/>
<text text-anchor="middle" x="14" y="-209.1" font-family="Times,serif" font-size="9.00">SC</text>
</g>
<!-- 721 -->
<g id="node12" class="node">
<title>721</title>
<ellipse fill="white" stroke="black" cx="58" cy="-125.8" rx="21.43" ry="21.43"/>
<text text-anchor="middle" x="58" y="-123.6" font-family="Times,serif" font-size="9.00">721</text>
</g>
<!-- SC&#45;&gt;721 -->
<g id="edge10" class="edge">
<title>SC&#45;&gt;721</title>
<path fill="none" stroke="red" stroke-width="0.16" d="M18.22,-202.29C24.06,-191.2 34.91,-170.63 43.8,-153.75"/>
<polygon fill="red" stroke="red" stroke-width="0.16" points="46.93,-155.32 48.49,-144.84 40.73,-152.06 46.93,-155.32"/>
</g>
<!-- SR -->
<g id="node4" class="node">
<title>SR</title>
<polygon fill="lightgray" stroke="black" points="267,-220.3 239,-220.3 239,-202.3 267,-202.3 267,-220.3"/>
<text text-anchor="middle" x="253" y="-209.1" font-family="Times,serif" font-size="9.00">SR</text>
</g>
<!-- SR&#45;&gt;720 -->
<g id="edge8" class="edge">
<title>SR&#45;&gt;720</title>
<path fill="none" stroke="red" stroke-width="0.53" d="M245.81,-202.29C235.06,-190.33 214.4,-167.32 198.69,-149.84"/>
<polygon fill="red" stroke="red" stroke-width="0.53" points="201.16,-147.35 191.88,-142.25 195.96,-152.03 201.16,-147.35"/>
</g>
<!-- 2069 -->
<g id="node13" class="node">
<title>2069</title>
<ellipse fill="white" stroke="black" cx="253" cy="-125.8" rx="25" ry="25"/>
<text text-anchor="middle" x="253" y="-123.6" font-family="Times,serif" font-size="9.00">2069</text>
</g>
<!-- SR&#45;&gt;2069 -->
<g id="edge11" class="edge">
<title>SR&#45;&gt;2069</title>
<path fill="none" stroke="red" stroke-width="0.51" d="M253,-202.29C253,-192.74 253,-176.15 253,-160.95"/>
<polygon fill="red" stroke="red" stroke-width="0.51" points="256.5,-160.76 253,-150.76 249.5,-160.76 256.5,-160.76"/>
</g>
<!-- SRR -->
<g id="node5" class="node">
<title>SRR</title>
<polygon fill="lightgray" stroke="black" points="80,-220.3 46,-220.3 46,-202.3 80,-202.3 80,-220.3"/>
<text text-anchor="middle" x="63" y="-209.1" font-family="Times,serif" font-size="9.00">SRR</text>
</g>
<!-- SRR&#45;&gt;721 -->
<g id="edge7" class="edge">
<title>SRR&#45;&gt;721</title>
<path fill="none" stroke="red" stroke-width="0.5" d="M62.52,-202.29C61.9,-191.98 60.79,-173.46 59.83,-157.35"/>
<polygon fill="red" stroke="red" stroke-width="0.5" points="63.31,-156.99 59.22,-147.22 56.33,-157.41 63.31,-156.99"/>
</g>
<!-- V -->
<g id="node6" class="node">
<title>V</title>
<polygon fill="lightgray" stroke="black" points="220.5,-220.3 197.5,-220.3 197.5,-202.3 220.5,-202.3 220.5,-220.3"/>
<text text-anchor="middle" x="209" y="-209.1" font-family="Times,serif" font-size="9.00">V</text>
</g>
<!-- V&#45;&gt;720 -->
<g id="edge3" class="edge">
<title>V&#45;&gt;720</title>
<path fill="none" stroke="green" stroke-width="0.31" d="M206.03,-202.29C202.06,-191.61 194.83,-172.13 188.7,-155.63"/>
<polygon fill="green" stroke="green" stroke-width="0.31" points="191.83,-154.01 185.07,-145.85 185.27,-156.44 191.83,-154.01"/>
</g>
<!-- Steering -->
<g id="node7" class="node">
<title>Steering</title>
<ellipse fill="lightblue" stroke="black" cx="178" cy="-32.53" rx="32.55" ry="32.55"/>
<text text-anchor="middle" x="178" y="-30.33" font-family="Times,serif" font-size="9.00">Steering</text>
</g>
<!-- Pedal -->
<g id="node8" class="node">
<title>Pedal</title>
<ellipse fill="lightblue" stroke="black" cx="80" cy="-32.53" rx="25.41" ry="25.41"/>
<text text-anchor="middle" x="80" y="-30.33" font-family="Times,serif" font-size="9.00">Pedal</text>
</g>
<!-- 4455 -->
<g id="node9" class="node">
<title>4455</title>
<ellipse fill="white" stroke="black" cx="310" cy="-211.3" rx="25" ry="25"/>
<text text-anchor="middle" x="310" y="-209.1" font-family="Times,serif" font-size="9.00">4455</text>
</g>
<!-- 720&#45;&gt;Steering -->
<g id="edge2" class="edge">
<title>720&#45;&gt;Steering</title>
<path fill="none" stroke="red" stroke-width="0.16" d="M178,-104.55C178,-95.88 178,-85.42 178,-75.23"/>
<polygon fill="red" stroke="red" stroke-width="0.16" points="181.5,-75.2 178,-65.2 174.5,-75.2 181.5,-75.2"/>
</g>
<!-- 720&#45;&gt;Pedal -->
<g id="edge9" class="edge">
<title>720&#45;&gt;Pedal</title>
<path fill="none" stroke="red" stroke-width="0.2" d="M162.69,-110.54C147.43,-96.33 123.71,-74.24 105.59,-57.36"/>
<polygon fill="red" stroke="red" stroke-width="0.2" points="107.91,-54.74 98.2,-50.48 103.14,-59.86 107.91,-54.74"/>
</g>
<!-- 721&#45;&gt;Pedal -->
<g id="edge5" class="edge">
<title>721&#45;&gt;Pedal</title>
<path fill="none" stroke="green" stroke-width="0.27" d="M62.77,-105C65.43,-93.99 68.8,-80 71.86,-67.32"/>
<polygon fill="green" stroke="green" stroke-width="0.27" points="75.28,-68.05 74.22,-57.51 68.47,-66.41 75.28,-68.05"/>
</g>
</g>
</svg>
