<?xml version="1.0" encoding="utf-8" standalone="no"?>
<!DOCTYPE svg PUBLIC "-//W3C//DTD SVG 1.1//EN"
  "http://www.w3.org/Graphics/SVG/1.1/DTD/svg11.dtd">
<!-- Created with matplotlib (https://matplotlib.org/) -->
<svg height="345.6pt" version="1.1" viewBox="0 0 460.8 345.6" width="460.8pt" xmlns="http://www.w3.org/2000/svg" xmlns:xlink="http://www.w3.org/1999/xlink">
 <metadata>
  <rdf:RDF xmlns:cc="http://creativecommons.org/ns#" xmlns:dc="http://purl.org/dc/elements/1.1/" xmlns:rdf="http://www.w3.org/1999/02/22-rdf-syntax-ns#">
   <cc:Work>
    <dc:type rdf:resource="http://purl.org/dc/dcmitype/StillImage"/>
    <dc:date>2021-06-25T16:53:59.693796</dc:date>
    <dc:format>image/svg+xml</dc:format>
    <dc:creator>
     <cc:Agent>
      <dc:title>Matplotlib v3.3.3, https://matplotlib.org/</dc:title>
     </cc:Agent>
    </dc:creator>
   </cc:Work>
  </rdf:RDF>
 </metadata>
 <defs>
  <style type="text/css">*{stroke-linecap:butt;stroke-linejoin:round;}</style>
 </defs>
 <g id="figure_1">
  <g id="patch_1">
   <path d="M 0 345.6 
L 460.8 345.6 
L 460.8 0 
L 0 0 
z
" style="fill:#ffffff;"/>
  </g>
  <g id="axes_1">
   <g id="patch_2">
    <path d="M 57.6 307.584 
L 414.72 307.584 
L 414.72 41.472 
L 57.6 41.472 
z
" style="fill:#ffffff;"/>
   </g>
   <g id="matplotlib.axis_1">
    <g id="xtick_1">
     <g id="line2d_1">
      <path clip-path="url(#pd016d7fa33)" d="M 73.832727 307.584 
L 73.832727 41.472 
" style="fill:none;stroke:#b0b0b0;stroke-linecap:square;stroke-width:0.8;"/>
     </g>
     <g id="line2d_2">
      <defs>
       <path d="M 0 0 
L 0 3.5 
" id="m720bd6900e" style="stroke:#000000;stroke-width:0.8;"/>
      </defs>
      <g>
       <use style="stroke:#000000;stroke-width:0.8;" x="73.832727" xlink:href="#m720bd6900e" y="307.584"/>
      </g>
     </g>
     <g id="text_1">
      <!-- 0 -->
      <g transform="translate(70.651477 322.182437)scale(0.1 -0.1)">
       <defs>
        <path d="M 31.78125 66.40625 
Q 24.171875 66.40625 20.328125 58.90625 
Q 16.5 51.421875 16.5 36.375 
Q 16.5 21.390625 20.328125 13.890625 
Q 24.171875 6.390625 31.78125 6.390625 
Q 39.453125 6.390625 43.28125 13.890625 
Q 47.125 21.390625 47.125 36.375 
Q 47.125 51.421875 43.28125 58.90625 
Q 39.453125 66.40625 31.78125 66.40625 
z
M 31.78125 74.21875 
Q 44.046875 74.21875 50.515625 64.515625 
Q 56.984375 54.828125 56.984375 36.375 
Q 56.984375 17.96875 50.515625 8.265625 
Q 44.046875 -1.421875 31.78125 -1.421875 
Q 19.53125 -1.421875 13.0625 8.265625 
Q 6.59375 17.96875 6.59375 36.375 
Q 6.59375 54.828125 13.0625 64.515625 
Q 19.53125 74.21875 31.78125 74.21875 
z
" id="DejaVuSans-48"/>
       </defs>
       <use xlink:href="#DejaVuSans-48"/>
      </g>
     </g>
    </g>
    <g id="xtick_2">
     <g id="line2d_3">
      <path clip-path="url(#pd016d7fa33)" d="M 138.828632 307.584 
L 138.828632 41.472 
" style="fill:none;stroke:#b0b0b0;stroke-linecap:square;stroke-width:0.8;"/>
     </g>
     <g id="line2d_4">
      <g>
       <use style="stroke:#000000;stroke-width:0.8;" x="138.828632" xlink:href="#m720bd6900e" y="307.584"/>
      </g>
     </g>
     <g id="text_2">
      <!-- 200 -->
      <g transform="translate(129.284882 322.182437)scale(0.1 -0.1)">
       <defs>
        <path d="M 19.1875 8.296875 
L 53.609375 8.296875 
L 53.609375 0 
L 7.328125 0 
L 7.328125 8.296875 
Q 12.9375 14.109375 22.625 23.890625 
Q 32.328125 33.6875 34.8125 36.53125 
Q 39.546875 41.84375 41.421875 45.53125 
Q 43.3125 49.21875 43.3125 52.78125 
Q 43.3125 58.59375 39.234375 62.25 
Q 35.15625 65.921875 28.609375 65.921875 
Q 23.96875 65.921875 18.8125 64.3125 
Q 13.671875 62.703125 7.8125 59.421875 
L 7.8125 69.390625 
Q 13.765625 71.78125 18.9375 73 
Q 24.125 74.21875 28.421875 74.21875 
Q 39.75 74.21875 46.484375 68.546875 
Q 53.21875 62.890625 53.21875 53.421875 
Q 53.21875 48.921875 51.53125 44.890625 
Q 49.859375 40.875 45.40625 35.40625 
Q 44.1875 33.984375 37.640625 27.21875 
Q 31.109375 20.453125 19.1875 8.296875 
z
" id="DejaVuSans-50"/>
       </defs>
       <use xlink:href="#DejaVuSans-50"/>
       <use x="63.623047" xlink:href="#DejaVuSans-48"/>
       <use x="127.246094" xlink:href="#DejaVuSans-48"/>
      </g>
     </g>
    </g>
    <g id="xtick_3">
     <g id="line2d_5">
      <path clip-path="url(#pd016d7fa33)" d="M 203.824537 307.584 
L 203.824537 41.472 
" style="fill:none;stroke:#b0b0b0;stroke-linecap:square;stroke-width:0.8;"/>
     </g>
     <g id="line2d_6">
      <g>
       <use style="stroke:#000000;stroke-width:0.8;" x="203.824537" xlink:href="#m720bd6900e" y="307.584"/>
      </g>
     </g>
     <g id="text_3">
      <!-- 400 -->
      <g transform="translate(194.280787 322.182437)scale(0.1 -0.1)">
       <defs>
        <path d="M 37.796875 64.3125 
L 12.890625 25.390625 
L 37.796875 25.390625 
z
M 35.203125 72.90625 
L 47.609375 72.90625 
L 47.609375 25.390625 
L 58.015625 25.390625 
L 58.015625 17.1875 
L 47.609375 17.1875 
L 47.609375 0 
L 37.796875 0 
L 37.796875 17.1875 
L 4.890625 17.1875 
L 4.890625 26.703125 
z
" id="DejaVuSans-52"/>
       </defs>
       <use xlink:href="#DejaVuSans-52"/>
       <use x="63.623047" xlink:href="#DejaVuSans-48"/>
       <use x="127.246094" xlink:href="#DejaVuSans-48"/>
      </g>
     </g>
    </g>
    <g id="xtick_4">
     <g id="line2d_7">
      <path clip-path="url(#pd016d7fa33)" d="M 268.820442 307.584 
L 268.820442 41.472 
" style="fill:none;stroke:#b0b0b0;stroke-linecap:square;stroke-width:0.8;"/>
     </g>
     <g id="line2d_8">
      <g>
       <use style="stroke:#000000;stroke-width:0.8;" x="268.820442" xlink:href="#m720bd6900e" y="307.584"/>
      </g>
     </g>
     <g id="text_4">
      <!-- 600 -->
      <g transform="translate(259.276692 322.182437)scale(0.1 -0.1)">
       <defs>
        <path d="M 33.015625 40.375 
Q 26.375 40.375 22.484375 35.828125 
Q 18.609375 31.296875 18.609375 23.390625 
Q 18.609375 15.53125 22.484375 10.953125 
Q 26.375 6.390625 33.015625 6.390625 
Q 39.65625 6.390625 43.53125 10.953125 
Q 47.40625 15.53125 47.40625 23.390625 
Q 47.40625 31.296875 43.53125 35.828125 
Q 39.65625 40.375 33.015625 40.375 
z
M 52.59375 71.296875 
L 52.59375 62.3125 
Q 48.875 64.0625 45.09375 64.984375 
Q 41.3125 65.921875 37.59375 65.921875 
Q 27.828125 65.921875 22.671875 59.328125 
Q 17.53125 52.734375 16.796875 39.40625 
Q 19.671875 43.65625 24.015625 45.921875 
Q 28.375 48.1875 33.59375 48.1875 
Q 44.578125 48.1875 50.953125 41.515625 
Q 57.328125 34.859375 57.328125 23.390625 
Q 57.328125 12.15625 50.6875 5.359375 
Q 44.046875 -1.421875 33.015625 -1.421875 
Q 20.359375 -1.421875 13.671875 8.265625 
Q 6.984375 17.96875 6.984375 36.375 
Q 6.984375 53.65625 15.1875 63.9375 
Q 23.390625 74.21875 37.203125 74.21875 
Q 40.921875 74.21875 44.703125 73.484375 
Q 48.484375 72.75 52.59375 71.296875 
z
" id="DejaVuSans-54"/>
       </defs>
       <use xlink:href="#DejaVuSans-54"/>
       <use x="63.623047" xlink:href="#DejaVuSans-48"/>
       <use x="127.246094" xlink:href="#DejaVuSans-48"/>
      </g>
     </g>
    </g>
    <g id="xtick_5">
     <g id="line2d_9">
      <path clip-path="url(#pd016d7fa33)" d="M 333.816347 307.584 
L 333.816347 41.472 
" style="fill:none;stroke:#b0b0b0;stroke-linecap:square;stroke-width:0.8;"/>
     </g>
     <g id="line2d_10">
      <g>
       <use style="stroke:#000000;stroke-width:0.8;" x="333.816347" xlink:href="#m720bd6900e" y="307.584"/>
      </g>
     </g>
     <g id="text_5">
      <!-- 800 -->
      <g transform="translate(324.272597 322.182437)scale(0.1 -0.1)">
       <defs>
        <path d="M 31.78125 34.625 
Q 24.75 34.625 20.71875 30.859375 
Q 16.703125 27.09375 16.703125 20.515625 
Q 16.703125 13.921875 20.71875 10.15625 
Q 24.75 6.390625 31.78125 6.390625 
Q 38.8125 6.390625 42.859375 10.171875 
Q 46.921875 13.96875 46.921875 20.515625 
Q 46.921875 27.09375 42.890625 30.859375 
Q 38.875 34.625 31.78125 34.625 
z
M 21.921875 38.8125 
Q 15.578125 40.375 12.03125 44.71875 
Q 8.5 49.078125 8.5 55.328125 
Q 8.5 64.0625 14.71875 69.140625 
Q 20.953125 74.21875 31.78125 74.21875 
Q 42.671875 74.21875 48.875 69.140625 
Q 55.078125 64.0625 55.078125 55.328125 
Q 55.078125 49.078125 51.53125 44.71875 
Q 48 40.375 41.703125 38.8125 
Q 48.828125 37.15625 52.796875 32.3125 
Q 56.78125 27.484375 56.78125 20.515625 
Q 56.78125 9.90625 50.3125 4.234375 
Q 43.84375 -1.421875 31.78125 -1.421875 
Q 19.734375 -1.421875 13.25 4.234375 
Q 6.78125 9.90625 6.78125 20.515625 
Q 6.78125 27.484375 10.78125 32.3125 
Q 14.796875 37.15625 21.921875 38.8125 
z
M 18.3125 54.390625 
Q 18.3125 48.734375 21.84375 45.5625 
Q 25.390625 42.390625 31.78125 42.390625 
Q 38.140625 42.390625 41.71875 45.5625 
Q 45.3125 48.734375 45.3125 54.390625 
Q 45.3125 60.0625 41.71875 63.234375 
Q 38.140625 66.40625 31.78125 66.40625 
Q 25.390625 66.40625 21.84375 63.234375 
Q 18.3125 60.0625 18.3125 54.390625 
z
" id="DejaVuSans-56"/>
       </defs>
       <use xlink:href="#DejaVuSans-56"/>
       <use x="63.623047" xlink:href="#DejaVuSans-48"/>
       <use x="127.246094" xlink:href="#DejaVuSans-48"/>
      </g>
     </g>
    </g>
    <g id="xtick_6">
     <g id="line2d_11">
      <path clip-path="url(#pd016d7fa33)" d="M 398.812252 307.584 
L 398.812252 41.472 
" style="fill:none;stroke:#b0b0b0;stroke-linecap:square;stroke-width:0.8;"/>
     </g>
     <g id="line2d_12">
      <g>
       <use style="stroke:#000000;stroke-width:0.8;" x="398.812252" xlink:href="#m720bd6900e" y="307.584"/>
      </g>
     </g>
     <g id="text_6">
      <!-- 1000 -->
      <g transform="translate(386.087252 322.182437)scale(0.1 -0.1)">
       <defs>
        <path d="M 12.40625 8.296875 
L 28.515625 8.296875 
L 28.515625 63.921875 
L 10.984375 60.40625 
L 10.984375 69.390625 
L 28.421875 72.90625 
L 38.28125 72.90625 
L 38.28125 8.296875 
L 54.390625 8.296875 
L 54.390625 0 
L 12.40625 0 
z
" id="DejaVuSans-49"/>
       </defs>
       <use xlink:href="#DejaVuSans-49"/>
       <use x="63.623047" xlink:href="#DejaVuSans-48"/>
       <use x="127.246094" xlink:href="#DejaVuSans-48"/>
       <use x="190.869141" xlink:href="#DejaVuSans-48"/>
      </g>
     </g>
    </g>
    <g id="text_7">
     <!-- Generations -->
     <g transform="translate(205.662344 335.860562)scale(0.1 -0.1)">
      <defs>
       <path d="M 59.515625 10.40625 
L 59.515625 29.984375 
L 43.40625 29.984375 
L 43.40625 38.09375 
L 69.28125 38.09375 
L 69.28125 6.78125 
Q 63.578125 2.734375 56.6875 0.65625 
Q 49.8125 -1.421875 42 -1.421875 
Q 24.90625 -1.421875 15.25 8.5625 
Q 5.609375 18.5625 5.609375 36.375 
Q 5.609375 54.25 15.25 64.234375 
Q 24.90625 74.21875 42 74.21875 
Q 49.125 74.21875 55.546875 72.453125 
Q 61.96875 70.703125 67.390625 67.28125 
L 67.390625 56.78125 
Q 61.921875 61.421875 55.765625 63.765625 
Q 49.609375 66.109375 42.828125 66.109375 
Q 29.4375 66.109375 22.71875 58.640625 
Q 16.015625 51.171875 16.015625 36.375 
Q 16.015625 21.625 22.71875 14.15625 
Q 29.4375 6.6875 42.828125 6.6875 
Q 48.046875 6.6875 52.140625 7.59375 
Q 56.25 8.5 59.515625 10.40625 
z
" id="DejaVuSans-71"/>
       <path d="M 56.203125 29.59375 
L 56.203125 25.203125 
L 14.890625 25.203125 
Q 15.484375 15.921875 20.484375 11.0625 
Q 25.484375 6.203125 34.421875 6.203125 
Q 39.59375 6.203125 44.453125 7.46875 
Q 49.3125 8.734375 54.109375 11.28125 
L 54.109375 2.78125 
Q 49.265625 0.734375 44.1875 -0.34375 
Q 39.109375 -1.421875 33.890625 -1.421875 
Q 20.796875 -1.421875 13.15625 6.1875 
Q 5.515625 13.8125 5.515625 26.8125 
Q 5.515625 40.234375 12.765625 48.109375 
Q 20.015625 56 32.328125 56 
Q 43.359375 56 49.78125 48.890625 
Q 56.203125 41.796875 56.203125 29.59375 
z
M 47.21875 32.234375 
Q 47.125 39.59375 43.09375 43.984375 
Q 39.0625 48.390625 32.421875 48.390625 
Q 24.90625 48.390625 20.390625 44.140625 
Q 15.875 39.890625 15.1875 32.171875 
z
" id="DejaVuSans-101"/>
       <path d="M 54.890625 33.015625 
L 54.890625 0 
L 45.90625 0 
L 45.90625 32.71875 
Q 45.90625 40.484375 42.875 44.328125 
Q 39.84375 48.1875 33.796875 48.1875 
Q 26.515625 48.1875 22.3125 43.546875 
Q 18.109375 38.921875 18.109375 30.90625 
L 18.109375 0 
L 9.078125 0 
L 9.078125 54.6875 
L 18.109375 54.6875 
L 18.109375 46.1875 
Q 21.34375 51.125 25.703125 53.5625 
Q 30.078125 56 35.796875 56 
Q 45.21875 56 50.046875 50.171875 
Q 54.890625 44.34375 54.890625 33.015625 
z
" id="DejaVuSans-110"/>
       <path d="M 41.109375 46.296875 
Q 39.59375 47.171875 37.8125 47.578125 
Q 36.03125 48 33.890625 48 
Q 26.265625 48 22.1875 43.046875 
Q 18.109375 38.09375 18.109375 28.8125 
L 18.109375 0 
L 9.078125 0 
L 9.078125 54.6875 
L 18.109375 54.6875 
L 18.109375 46.1875 
Q 20.953125 51.171875 25.484375 53.578125 
Q 30.03125 56 36.53125 56 
Q 37.453125 56 38.578125 55.875 
Q 39.703125 55.765625 41.0625 55.515625 
z
" id="DejaVuSans-114"/>
       <path d="M 34.28125 27.484375 
Q 23.390625 27.484375 19.1875 25 
Q 14.984375 22.515625 14.984375 16.5 
Q 14.984375 11.71875 18.140625 8.90625 
Q 21.296875 6.109375 26.703125 6.109375 
Q 34.1875 6.109375 38.703125 11.40625 
Q 43.21875 16.703125 43.21875 25.484375 
L 43.21875 27.484375 
z
M 52.203125 31.203125 
L 52.203125 0 
L 43.21875 0 
L 43.21875 8.296875 
Q 40.140625 3.328125 35.546875 0.953125 
Q 30.953125 -1.421875 24.3125 -1.421875 
Q 15.921875 -1.421875 10.953125 3.296875 
Q 6 8.015625 6 15.921875 
Q 6 25.140625 12.171875 29.828125 
Q 18.359375 34.515625 30.609375 34.515625 
L 43.21875 34.515625 
L 43.21875 35.40625 
Q 43.21875 41.609375 39.140625 45 
Q 35.0625 48.390625 27.6875 48.390625 
Q 23 48.390625 18.546875 47.265625 
Q 14.109375 46.140625 10.015625 43.890625 
L 10.015625 52.203125 
Q 14.9375 54.109375 19.578125 55.046875 
Q 24.21875 56 28.609375 56 
Q 40.484375 56 46.34375 49.84375 
Q 52.203125 43.703125 52.203125 31.203125 
z
" id="DejaVuSans-97"/>
       <path d="M 18.3125 70.21875 
L 18.3125 54.6875 
L 36.8125 54.6875 
L 36.8125 47.703125 
L 18.3125 47.703125 
L 18.3125 18.015625 
Q 18.3125 11.328125 20.140625 9.421875 
Q 21.96875 7.515625 27.59375 7.515625 
L 36.8125 7.515625 
L 36.8125 0 
L 27.59375 0 
Q 17.1875 0 13.234375 3.875 
Q 9.28125 7.765625 9.28125 18.015625 
L 9.28125 47.703125 
L 2.6875 47.703125 
L 2.6875 54.6875 
L 9.28125 54.6875 
L 9.28125 70.21875 
z
" id="DejaVuSans-116"/>
       <path d="M 9.421875 54.6875 
L 18.40625 54.6875 
L 18.40625 0 
L 9.421875 0 
z
M 9.421875 75.984375 
L 18.40625 75.984375 
L 18.40625 64.59375 
L 9.421875 64.59375 
z
" id="DejaVuSans-105"/>
       <path d="M 30.609375 48.390625 
Q 23.390625 48.390625 19.1875 42.75 
Q 14.984375 37.109375 14.984375 27.296875 
Q 14.984375 17.484375 19.15625 11.84375 
Q 23.34375 6.203125 30.609375 6.203125 
Q 37.796875 6.203125 41.984375 11.859375 
Q 46.1875 17.53125 46.1875 27.296875 
Q 46.1875 37.015625 41.984375 42.703125 
Q 37.796875 48.390625 30.609375 48.390625 
z
M 30.609375 56 
Q 42.328125 56 49.015625 48.375 
Q 55.71875 40.765625 55.71875 27.296875 
Q 55.71875 13.875 49.015625 6.21875 
Q 42.328125 -1.421875 30.609375 -1.421875 
Q 18.84375 -1.421875 12.171875 6.21875 
Q 5.515625 13.875 5.515625 27.296875 
Q 5.515625 40.765625 12.171875 48.375 
Q 18.84375 56 30.609375 56 
z
" id="DejaVuSans-111"/>
       <path d="M 44.28125 53.078125 
L 44.28125 44.578125 
Q 40.484375 46.53125 36.375 47.5 
Q 32.28125 48.484375 27.875 48.484375 
Q 21.1875 48.484375 17.84375 46.4375 
Q 14.5 44.390625 14.5 40.28125 
Q 14.5 37.15625 16.890625 35.375 
Q 19.28125 33.59375 26.515625 31.984375 
L 29.59375 31.296875 
Q 39.15625 29.25 43.1875 25.515625 
Q 47.21875 21.78125 47.21875 15.09375 
Q 47.21875 7.46875 41.1875 3.015625 
Q 35.15625 -1.421875 24.609375 -1.421875 
Q 20.21875 -1.421875 15.453125 -0.5625 
Q 10.6875 0.296875 5.421875 2 
L 5.421875 11.28125 
Q 10.40625 8.6875 15.234375 7.390625 
Q 20.0625 6.109375 24.8125 6.109375 
Q 31.15625 6.109375 34.5625 8.28125 
Q 37.984375 10.453125 37.984375 14.40625 
Q 37.984375 18.0625 35.515625 20.015625 
Q 33.0625 21.96875 24.703125 23.78125 
L 21.578125 24.515625 
Q 13.234375 26.265625 9.515625 29.90625 
Q 5.8125 33.546875 5.8125 39.890625 
Q 5.8125 47.609375 11.28125 51.796875 
Q 16.75 56 26.8125 56 
Q 31.78125 56 36.171875 55.265625 
Q 40.578125 54.546875 44.28125 53.078125 
z
" id="DejaVuSans-115"/>
      </defs>
      <use xlink:href="#DejaVuSans-71"/>
      <use x="77.490234" xlink:href="#DejaVuSans-101"/>
      <use x="139.013672" xlink:href="#DejaVuSans-110"/>
      <use x="202.392578" xlink:href="#DejaVuSans-101"/>
      <use x="263.916016" xlink:href="#DejaVuSans-114"/>
      <use x="305.029297" xlink:href="#DejaVuSans-97"/>
      <use x="366.308594" xlink:href="#DejaVuSans-116"/>
      <use x="405.517578" xlink:href="#DejaVuSans-105"/>
      <use x="433.300781" xlink:href="#DejaVuSans-111"/>
      <use x="494.482422" xlink:href="#DejaVuSans-110"/>
      <use x="557.861328" xlink:href="#DejaVuSans-115"/>
     </g>
    </g>
   </g>
   <g id="matplotlib.axis_2">
    <g id="ytick_1">
     <g id="line2d_13">
      <path clip-path="url(#pd016d7fa33)" d="M 57.6 296.980977 
L 414.72 296.980977 
" style="fill:none;stroke:#b0b0b0;stroke-linecap:square;stroke-width:0.8;"/>
     </g>
     <g id="line2d_14">
      <defs>
       <path d="M 0 0 
L -3.5 0 
" id="mafd2d6b81b" style="stroke:#000000;stroke-width:0.8;"/>
      </defs>
      <g>
       <use style="stroke:#000000;stroke-width:0.8;" x="57.6" xlink:href="#mafd2d6b81b" y="296.980977"/>
      </g>
     </g>
     <g id="text_8">
      <!-- −200 -->
      <g transform="translate(23.132812 300.780195)scale(0.1 -0.1)">
       <defs>
        <path d="M 10.59375 35.5 
L 73.1875 35.5 
L 73.1875 27.203125 
L 10.59375 27.203125 
z
" id="DejaVuSans-8722"/>
       </defs>
       <use xlink:href="#DejaVuSans-8722"/>
       <use x="83.789062" xlink:href="#DejaVuSans-50"/>
       <use x="147.412109" xlink:href="#DejaVuSans-48"/>
       <use x="211.035156" xlink:href="#DejaVuSans-48"/>
      </g>
     </g>
    </g>
    <g id="ytick_2">
     <g id="line2d_15">
      <path clip-path="url(#pd016d7fa33)" d="M 57.6 257.737973 
L 414.72 257.737973 
" style="fill:none;stroke:#b0b0b0;stroke-linecap:square;stroke-width:0.8;"/>
     </g>
     <g id="line2d_16">
      <g>
       <use style="stroke:#000000;stroke-width:0.8;" x="57.6" xlink:href="#mafd2d6b81b" y="257.737973"/>
      </g>
     </g>
     <g id="text_9">
      <!-- −100 -->
      <g transform="translate(23.132812 261.537192)scale(0.1 -0.1)">
       <use xlink:href="#DejaVuSans-8722"/>
       <use x="83.789062" xlink:href="#DejaVuSans-49"/>
       <use x="147.412109" xlink:href="#DejaVuSans-48"/>
       <use x="211.035156" xlink:href="#DejaVuSans-48"/>
      </g>
     </g>
    </g>
    <g id="ytick_3">
     <g id="line2d_17">
      <path clip-path="url(#pd016d7fa33)" d="M 57.6 218.49497 
L 414.72 218.49497 
" style="fill:none;stroke:#b0b0b0;stroke-linecap:square;stroke-width:0.8;"/>
     </g>
     <g id="line2d_18">
      <g>
       <use style="stroke:#000000;stroke-width:0.8;" x="57.6" xlink:href="#mafd2d6b81b" y="218.49497"/>
      </g>
     </g>
     <g id="text_10">
      <!-- 0 -->
      <g transform="translate(44.2375 222.294189)scale(0.1 -0.1)">
       <use xlink:href="#DejaVuSans-48"/>
      </g>
     </g>
    </g>
    <g id="ytick_4">
     <g id="line2d_19">
      <path clip-path="url(#pd016d7fa33)" d="M 57.6 179.251967 
L 414.72 179.251967 
" style="fill:none;stroke:#b0b0b0;stroke-linecap:square;stroke-width:0.8;"/>
     </g>
     <g id="line2d_20">
      <g>
       <use style="stroke:#000000;stroke-width:0.8;" x="57.6" xlink:href="#mafd2d6b81b" y="179.251967"/>
      </g>
     </g>
     <g id="text_11">
      <!-- 100 -->
      <g transform="translate(31.5125 183.051185)scale(0.1 -0.1)">
       <use xlink:href="#DejaVuSans-49"/>
       <use x="63.623047" xlink:href="#DejaVuSans-48"/>
       <use x="127.246094" xlink:href="#DejaVuSans-48"/>
      </g>
     </g>
    </g>
    <g id="ytick_5">
     <g id="line2d_21">
      <path clip-path="url(#pd016d7fa33)" d="M 57.6 140.008963 
L 414.72 140.008963 
" style="fill:none;stroke:#b0b0b0;stroke-linecap:square;stroke-width:0.8;"/>
     </g>
     <g id="line2d_22">
      <g>
       <use style="stroke:#000000;stroke-width:0.8;" x="57.6" xlink:href="#mafd2d6b81b" y="140.008963"/>
      </g>
     </g>
     <g id="text_12">
      <!-- 200 -->
      <g transform="translate(31.5125 143.808182)scale(0.1 -0.1)">
       <use xlink:href="#DejaVuSans-50"/>
       <use x="63.623047" xlink:href="#DejaVuSans-48"/>
       <use x="127.246094" xlink:href="#DejaVuSans-48"/>
      </g>
     </g>
    </g>
    <g id="ytick_6">
     <g id="line2d_23">
      <path clip-path="url(#pd016d7fa33)" d="M 57.6 100.76596 
L 414.72 100.76596 
" style="fill:none;stroke:#b0b0b0;stroke-linecap:square;stroke-width:0.8;"/>
     </g>
     <g id="line2d_24">
      <g>
       <use style="stroke:#000000;stroke-width:0.8;" x="57.6" xlink:href="#mafd2d6b81b" y="100.76596"/>
      </g>
     </g>
     <g id="text_13">
      <!-- 300 -->
      <g transform="translate(31.5125 104.565179)scale(0.1 -0.1)">
       <defs>
        <path d="M 40.578125 39.3125 
Q 47.65625 37.796875 51.625 33 
Q 55.609375 28.21875 55.609375 21.1875 
Q 55.609375 10.40625 48.1875 4.484375 
Q 40.765625 -1.421875 27.09375 -1.421875 
Q 22.515625 -1.421875 17.65625 -0.515625 
Q 12.796875 0.390625 7.625 2.203125 
L 7.625 11.71875 
Q 11.71875 9.328125 16.59375 8.109375 
Q 21.484375 6.890625 26.8125 6.890625 
Q 36.078125 6.890625 40.9375 10.546875 
Q 45.796875 14.203125 45.796875 21.1875 
Q 45.796875 27.640625 41.28125 31.265625 
Q 36.765625 34.90625 28.71875 34.90625 
L 20.21875 34.90625 
L 20.21875 43.015625 
L 29.109375 43.015625 
Q 36.375 43.015625 40.234375 45.921875 
Q 44.09375 48.828125 44.09375 54.296875 
Q 44.09375 59.90625 40.109375 62.90625 
Q 36.140625 65.921875 28.71875 65.921875 
Q 24.65625 65.921875 20.015625 65.03125 
Q 15.375 64.15625 9.8125 62.3125 
L 9.8125 71.09375 
Q 15.4375 72.65625 20.34375 73.4375 
Q 25.25 74.21875 29.59375 74.21875 
Q 40.828125 74.21875 47.359375 69.109375 
Q 53.90625 64.015625 53.90625 55.328125 
Q 53.90625 49.265625 50.4375 45.09375 
Q 46.96875 40.921875 40.578125 39.3125 
z
" id="DejaVuSans-51"/>
       </defs>
       <use xlink:href="#DejaVuSans-51"/>
       <use x="63.623047" xlink:href="#DejaVuSans-48"/>
       <use x="127.246094" xlink:href="#DejaVuSans-48"/>
      </g>
     </g>
    </g>
    <g id="ytick_7">
     <g id="line2d_25">
      <path clip-path="url(#pd016d7fa33)" d="M 57.6 61.522957 
L 414.72 61.522957 
" style="fill:none;stroke:#b0b0b0;stroke-linecap:square;stroke-width:0.8;"/>
     </g>
     <g id="line2d_26">
      <g>
       <use style="stroke:#000000;stroke-width:0.8;" x="57.6" xlink:href="#mafd2d6b81b" y="61.522957"/>
      </g>
     </g>
     <g id="text_14">
      <!-- 400 -->
      <g transform="translate(31.5125 65.322176)scale(0.1 -0.1)">
       <use xlink:href="#DejaVuSans-52"/>
       <use x="63.623047" xlink:href="#DejaVuSans-48"/>
       <use x="127.246094" xlink:href="#DejaVuSans-48"/>
      </g>
     </g>
    </g>
    <g id="text_15">
     <!-- Fitness -->
     <g transform="translate(17.053125 191.845187)rotate(-90)scale(0.1 -0.1)">
      <defs>
       <path d="M 9.8125 72.90625 
L 51.703125 72.90625 
L 51.703125 64.59375 
L 19.671875 64.59375 
L 19.671875 43.109375 
L 48.578125 43.109375 
L 48.578125 34.8125 
L 19.671875 34.8125 
L 19.671875 0 
L 9.8125 0 
z
" id="DejaVuSans-70"/>
      </defs>
      <use xlink:href="#DejaVuSans-70"/>
      <use x="50.269531" xlink:href="#DejaVuSans-105"/>
      <use x="78.052734" xlink:href="#DejaVuSans-116"/>
      <use x="117.261719" xlink:href="#DejaVuSans-110"/>
      <use x="180.640625" xlink:href="#DejaVuSans-101"/>
      <use x="242.164062" xlink:href="#DejaVuSans-115"/>
      <use x="294.263672" xlink:href="#DejaVuSans-115"/>
     </g>
    </g>
   </g>
   <g id="line2d_27">
    <path clip-path="url(#pd016d7fa33)" d="M 73.832727 225.428568 
L 74.157707 216.657374 
L 74.482686 215.410084 
L 74.807666 193.538379 
L 75.132645 223.822703 
L 75.457625 241.490243 
L 75.782604 226.705701 
L 76.107584 222.223958 
L 76.432563 237.429379 
L 76.757543 195.218321 
L 77.082523 200.340377 
L 77.407502 219.812189 
L 77.732482 190.42147 
L 78.382441 235.243317 
L 78.70742 235.454689 
L 79.357379 206.676686 
L 79.682359 234.895545 
L 80.332318 215.786032 
L 80.657297 211.627 
L 80.982277 245.596428 
L 81.307256 235.542847 
L 81.632236 229.064392 
L 81.957215 239.792353 
L 82.282195 208.2882 
L 82.607174 235.321693 
L 82.932154 235.344144 
L 83.582113 258.985471 
L 83.907093 259.907104 
L 84.232072 258.48324 
L 84.557052 251.530148 
L 84.882031 295.488 
L 85.207011 214.089159 
L 85.53199 228.07961 
L 85.85697 208.159092 
L 86.181949 195.759657 
L 86.506929 203.750816 
L 86.831908 237.047905 
L 87.156888 245.300269 
L 87.481867 246.249839 
L 88.131826 207.478765 
L 88.456806 239.419998 
L 88.781785 239.127655 
L 89.106765 237.640018 
L 89.431744 202.973882 
L 89.756724 248.579073 
L 90.081704 247.891624 
L 90.406683 202.145912 
L 90.731663 194.602071 
L 91.381622 217.569797 
L 91.706601 235.724058 
L 92.031581 184.115258 
L 92.35656 185.216584 
L 92.68154 215.58996 
L 93.006519 205.389907 
L 93.331499 207.845043 
L 93.656478 235.256353 
L 93.981458 212.337266 
L 94.306437 226.125216 
L 94.631417 209.186586 
L 94.956396 249.71504 
L 95.281376 235.335453 
L 95.606355 226.885529 
L 95.931335 255.399464 
L 96.256314 231.571536 
L 96.581294 228.162628 
L 96.906274 231.436268 
L 97.881212 177.460782 
L 98.206192 223.82938 
L 98.531171 221.457207 
L 98.856151 206.841331 
L 99.18113 216.068362 
L 99.50611 192.012748 
L 99.831089 227.605637 
L 100.156069 200.477459 
L 100.481048 199.324902 
L 100.806028 226.219718 
L 101.131007 229.990512 
L 101.455987 191.267438 
L 101.780966 240.735457 
L 102.105946 218.556716 
L 102.430925 210.792322 
L 102.755905 212.260288 
L 103.080885 223.192467 
L 103.405864 250.655146 
L 103.730844 222.431144 
L 104.055823 274.804981 
L 104.380803 206.294192 
L 104.705782 208.778107 
L 105.030762 213.668302 
L 105.355741 212.878317 
L 105.680721 250.775206 
L 106.33068 202.075524 
L 106.655659 226.698509 
L 106.980639 209.226849 
L 107.305618 233.505502 
L 107.955577 206.990094 
L 108.280557 197.138031 
L 108.605536 202.126766 
L 108.930516 248.421206 
L 109.255495 220.02438 
L 109.580475 228.884698 
L 109.905455 245.741211 
L 110.230434 214.382915 
L 110.555414 215.701147 
L 110.880393 209.690767 
L 111.205373 216.310118 
L 111.530352 202.669819 
L 111.855332 213.196066 
L 112.180311 240.125329 
L 112.505291 218.98802 
L 112.83027 220.571042 
L 113.15525 220.437282 
L 113.805209 207.931552 
L 114.130188 220.785708 
L 114.455168 227.418017 
L 114.780147 213.99583 
L 115.105127 242.15173 
L 115.430106 229.265638 
L 115.755086 229.097525 
L 116.080066 192.675356 
L 116.405045 193.362994 
L 116.730025 247.681518 
L 117.055004 216.994572 
L 117.379984 210.243301 
L 117.704963 227.148674 
L 118.354922 251.050939 
L 118.679902 212.629641 
L 119.004881 231.785186 
L 119.329861 240.589356 
L 119.65484 233.851031 
L 119.97982 252.361199 
L 120.304799 221.692466 
L 120.629779 218.346753 
L 120.954758 264.902418 
L 121.279738 237.777979 
L 121.604717 236.644077 
L 121.929697 212.954994 
L 122.254676 208.6339 
L 122.579656 206.703851 
L 123.554595 254.215794 
L 124.204554 219.95045 
L 124.529533 246.828898 
L 124.854513 251.261585 
L 125.179492 235.786939 
L 125.504472 202.218667 
L 125.829451 199.574985 
L 126.47941 242.950942 
L 126.80439 218.048526 
L 127.129369 214.894362 
L 127.454349 231.042149 
L 127.779328 226.850279 
L 128.104308 204.369427 
L 128.429287 209.009379 
L 128.754267 184.535936 
L 129.079247 208.783579 
L 129.404226 200.843794 
L 129.729206 205.653804 
L 130.054185 254.823962 
L 130.379165 198.048004 
L 130.704144 224.998836 
L 131.029124 199.67079 
L 131.354103 222.13758 
L 131.679083 206.723987 
L 132.004062 217.481305 
L 132.654021 191.847939 
L 132.979001 200.138668 
L 133.30398 220.817083 
L 133.62896 196.906016 
L 133.953939 233.823921 
L 134.278919 214.273885 
L 134.603898 236.265172 
L 134.928878 239.326767 
L 135.253857 222.771673 
L 135.578837 193.968274 
L 135.903817 212.310856 
L 136.228796 207.325271 
L 136.553776 225.091081 
L 136.878755 215.729406 
L 137.203735 224.19286 
L 137.528714 181.947168 
L 137.853694 222.959037 
L 138.503653 208.657468 
L 138.828632 220.441267 
L 139.153612 206.812099 
L 139.478591 201.518154 
L 139.803571 238.983095 
L 140.12855 242.821375 
L 140.778509 184.231414 
L 141.103489 232.788891 
L 141.428468 250.381669 
L 141.753448 224.055026 
L 142.078428 257.729353 
L 142.403407 272.479314 
L 142.728387 189.192048 
L 143.378346 244.529536 
L 143.703325 225.796044 
L 144.028305 213.528277 
L 144.353284 222.558358 
L 144.678264 221.016925 
L 145.003243 197.970351 
L 145.328223 250.862907 
L 145.978182 219.14837 
L 146.303161 214.917164 
L 146.628141 203.89287 
L 146.95312 214.994675 
L 147.2781 243.080732 
L 147.603079 244.453522 
L 147.928059 235.961201 
L 148.253038 243.937602 
L 148.578018 204.628683 
L 148.902998 195.806601 
L 149.552957 209.165743 
L 149.877936 203.322477 
L 150.202916 209.734546 
L 150.527895 194.460931 
L 150.852875 216.146085 
L 151.177854 197.69454 
L 151.502834 257.695384 
L 151.827813 233.828207 
L 152.152793 235.296243 
L 152.477772 212.271572 
L 152.802752 246.233587 
L 153.127731 204.133342 
L 153.452711 224.614562 
L 153.77769 214.782147 
L 154.10267 211.162709 
L 154.427649 209.535715 
L 154.752629 212.662781 
L 155.077609 232.698492 
L 155.402588 230.46604 
L 155.727568 217.465154 
L 156.052547 210.038513 
L 156.377527 217.863418 
L 156.702506 202.729113 
L 157.027486 208.499342 
L 157.352465 206.983431 
L 157.677445 210.593506 
L 158.002424 222.881936 
L 158.327404 200.73353 
L 158.652383 217.633013 
L 158.977363 212.52982 
L 159.302342 199.60888 
L 159.627322 209.610223 
L 159.952301 190.212339 
L 160.277281 186.147075 
L 160.60226 203.330574 
L 160.92724 189.376818 
L 161.577199 210.276421 
L 161.902179 213.827248 
L 162.227158 203.905953 
L 162.552138 210.869293 
L 162.877117 200.677679 
L 163.202097 203.904178 
L 163.852056 192.504539 
L 164.177035 207.94204 
L 164.502015 196.215191 
L 164.826994 195.096227 
L 165.151974 205.055751 
L 165.476953 210.900733 
L 165.801933 199.181067 
L 166.126912 217.125896 
L 166.451892 200.217524 
L 166.776871 199.592713 
L 167.101851 201.87953 
L 167.42683 232.888913 
L 167.75181 184.919852 
L 168.07679 181.804608 
L 168.401769 202.101799 
L 168.726749 212.439184 
L 169.051728 215.29925 
L 169.376708 201.388848 
L 169.701687 215.014079 
L 170.026667 208.337866 
L 170.351646 211.910995 
L 170.676626 196.030677 
L 171.001605 238.561991 
L 171.326585 216.61101 
L 171.651564 217.404442 
L 171.976544 215.364643 
L 172.301523 202.239565 
L 172.626503 239.235547 
L 172.951482 234.11774 
L 173.276462 230.95247 
L 173.601441 206.935613 
L 173.926421 213.64568 
L 174.2514 238.025467 
L 174.57638 228.17098 
L 174.90136 243.56318 
L 175.226339 195.050235 
L 175.551319 199.635282 
L 175.876298 217.450753 
L 176.201278 214.421017 
L 176.526257 239.522881 
L 176.851237 220.350817 
L 177.176216 212.243895 
L 177.501196 232.080621 
L 177.826175 228.268557 
L 178.151155 212.166582 
L 178.476134 252.622992 
L 178.801114 233.819111 
L 179.126093 243.699796 
L 179.451073 221.20213 
L 179.776052 230.327535 
L 180.101032 206.145303 
L 180.426011 205.27061 
L 180.750991 213.686719 
L 181.075971 218.06646 
L 181.40095 197.833814 
L 181.72593 206.188569 
L 182.050909 221.696121 
L 182.375889 211.032514 
L 182.700868 225.302981 
L 183.025848 256.613821 
L 183.350827 239.432114 
L 183.675807 249.868696 
L 184.000786 277.32928 
L 184.325766 234.096527 
L 184.650745 263.245663 
L 184.975725 234.599456 
L 185.300704 225.733192 
L 185.625684 225.775178 
L 185.950663 251.919946 
L 186.275643 234.224674 
L 186.600622 232.8975 
L 186.925602 228.756778 
L 187.250581 216.565289 
L 187.575561 221.144283 
L 188.22552 252.531959 
L 188.5505 212.569417 
L 188.875479 212.140051 
L 189.200459 199.282151 
L 189.525438 214.006723 
L 189.850418 196.172026 
L 190.175397 210.373653 
L 190.500377 241.305302 
L 190.825356 235.442348 
L 191.150336 210.448539 
L 191.475315 225.884357 
L 191.800295 209.008529 
L 192.125274 229.349555 
L 192.450254 231.197484 
L 192.775233 204.590829 
L 193.100213 194.255608 
L 193.425192 253.709416 
L 193.750172 228.671737 
L 194.075152 212.492369 
L 194.400131 206.596628 
L 194.725111 210.732933 
L 195.05009 226.796663 
L 195.37507 252.157885 
L 195.700049 224.198147 
L 196.025029 273.30175 
L 196.350008 232.299127 
L 196.674988 239.130468 
L 196.999967 234.256734 
L 197.324947 206.915931 
L 197.649926 241.975929 
L 197.974906 247.513945 
L 198.299885 218.72689 
L 198.624865 221.877045 
L 198.949844 209.212636 
L 199.274824 239.787407 
L 199.599803 221.964205 
L 199.924783 211.005658 
L 200.249762 242.844049 
L 200.574742 227.642831 
L 200.899722 219.476375 
L 201.224701 221.250108 
L 201.549681 238.472313 
L 201.87466 219.729181 
L 202.19964 243.70796 
L 202.524619 220.936161 
L 202.849599 248.333022 
L 203.174578 235.306228 
L 203.499558 181.471545 
L 203.824537 221.616309 
L 204.149517 207.79386 
L 204.474496 218.678901 
L 204.799476 216.171712 
L 205.124455 200.989196 
L 205.449435 200.28779 
L 205.774414 225.784537 
L 206.099394 201.20701 
L 206.424373 219.809642 
L 206.749353 213.853693 
L 207.074333 210.529087 
L 207.399312 212.153338 
L 207.724292 206.955827 
L 208.049271 234.794924 
L 208.374251 248.03805 
L 208.69923 210.709774 
L 209.02421 215.504122 
L 209.349189 229.316936 
L 209.674169 210.10463 
L 209.999148 227.614278 
L 210.324128 230.162755 
L 210.649107 235.284244 
L 210.974087 266.57653 
L 211.299066 212.637355 
L 211.624046 252.583022 
L 211.949025 206.111186 
L 212.274005 219.844193 
L 212.598984 206.837082 
L 212.923964 233.562999 
L 213.248943 224.309692 
L 213.573923 194.171711 
L 213.898903 220.012337 
L 214.223882 229.025736 
L 214.548862 197.920023 
L 214.873841 202.088977 
L 215.198821 199.912582 
L 215.5238 201.498299 
L 216.173759 264.55603 
L 216.823718 201.363619 
L 217.148698 228.135671 
L 217.798657 240.602536 
L 218.123636 250.310155 
L 218.448616 212.966141 
L 218.773595 209.385638 
L 219.098575 236.196096 
L 219.423554 244.420848 
L 219.748534 215.964689 
L 220.073514 262.872024 
L 220.398493 272.025072 
L 220.723473 232.815649 
L 221.048452 232.855021 
L 221.698411 239.904894 
L 222.023391 219.933251 
L 222.34837 219.111573 
L 222.67335 214.525408 
L 222.998329 220.676428 
L 223.323309 215.018511 
L 223.648288 225.703041 
L 223.973268 230.29365 
L 224.623227 204.79016 
L 224.948206 243.655408 
L 225.273186 223.411521 
L 225.598165 187.100583 
L 225.923145 200.389962 
L 226.248124 196.100827 
L 226.573104 205.970408 
L 226.898084 227.99937 
L 227.223063 195.108104 
L 227.548043 213.986019 
L 227.873022 189.143423 
L 228.198002 203.546992 
L 228.522981 210.149443 
L 229.17294 231.808513 
L 229.49792 201.209513 
L 229.822899 227.973471 
L 230.147879 206.2797 
L 230.472858 216.54392 
L 230.797838 219.460593 
L 231.122817 205.636777 
L 231.772776 230.376819 
L 232.097756 210.202956 
L 232.422735 210.729485 
L 232.747715 222.894687 
L 233.072695 200.39681 
L 233.397674 216.0599 
L 233.722654 238.373598 
L 234.047633 218.516783 
L 234.372613 228.458531 
L 234.697592 246.775745 
L 235.022572 231.594107 
L 235.347551 224.405303 
L 235.672531 239.409336 
L 235.99751 249.055134 
L 236.647469 199.271997 
L 237.297428 242.474209 
L 237.622408 222.007968 
L 237.947387 271.303528 
L 238.272367 216.902091 
L 238.597346 241.512961 
L 238.922326 212.869746 
L 239.247305 216.429887 
L 239.572285 205.166065 
L 240.222244 249.224672 
L 240.547224 223.988759 
L 240.872203 221.083505 
L 241.197183 232.168806 
L 241.522162 225.31099 
L 241.847142 247.2784 
L 242.172121 218.720223 
L 242.497101 261.940655 
L 242.82208 222.786008 
L 243.14706 227.692722 
L 243.472039 213.859664 
L 243.797019 192.797895 
L 244.121998 222.284258 
L 244.446978 202.935693 
L 244.771957 215.270547 
L 245.096937 189.832419 
L 245.421916 215.833649 
L 245.746896 208.169592 
L 246.071876 221.411155 
L 246.396855 226.423196 
L 246.721835 223.126547 
L 247.046814 242.78346 
L 247.371794 242.94716 
L 247.696773 185.936395 
L 248.021753 216.61657 
L 248.346732 229.162157 
L 248.671712 213.780639 
L 248.996691 207.05392 
L 249.321671 221.070248 
L 249.64665 228.93492 
L 249.97163 206.026411 
L 250.296609 228.370459 
L 250.621589 211.244727 
L 251.271548 231.475633 
L 251.596527 235.974598 
L 251.921507 224.242759 
L 252.246486 191.870897 
L 252.571466 205.231846 
L 252.896446 198.463074 
L 253.221425 220.27928 
L 253.546405 207.935673 
L 253.871384 243.932115 
L 254.521343 222.558355 
L 254.846323 243.928625 
L 255.171302 223.795989 
L 255.496282 223.414626 
L 255.821261 189.660259 
L 256.146241 232.389036 
L 256.47122 200.079183 
L 256.7962 238.659353 
L 257.121179 221.815525 
L 257.446159 228.118615 
L 257.771138 200.179601 
L 258.096118 234.253415 
L 258.421097 215.336664 
L 258.746077 209.356044 
L 259.396036 188.468991 
L 259.721016 207.564624 
L 260.045995 191.421019 
L 260.370975 200.624847 
L 260.695954 194.898272 
L 261.020934 192.004549 
L 261.345913 210.486527 
L 261.670893 207.596886 
L 261.995872 221.890185 
L 262.320852 208.417378 
L 262.645831 218.765376 
L 262.970811 236.315451 
L 263.29579 242.422928 
L 263.62077 209.443521 
L 263.945749 221.146952 
L 264.270729 217.815624 
L 264.595708 264.246809 
L 264.920688 216.94376 
L 265.245667 192.849177 
L 265.570647 200.037721 
L 265.895627 250.994143 
L 266.220606 207.109676 
L 266.545586 237.37892 
L 267.195545 201.327655 
L 267.520524 260.70125 
L 267.845504 225.817126 
L 268.170483 221.61982 
L 268.495463 235.955558 
L 268.820442 233.831356 
L 269.145422 206.890432 
L 269.470401 243.512517 
L 269.795381 202.642174 
L 270.12036 224.671951 
L 270.44534 210.495608 
L 271.095299 250.165107 
L 271.420278 245.565062 
L 271.745258 223.901778 
L 272.070238 224.804626 
L 272.395217 221.806475 
L 272.720197 225.46311 
L 273.045176 218.611953 
L 273.370156 199.460639 
L 273.695135 188.438732 
L 274.020115 222.440056 
L 274.345094 206.641561 
L 274.670074 207.269195 
L 274.995053 197.435118 
L 275.320033 191.902024 
L 275.645012 204.002132 
L 275.969992 231.076691 
L 276.294971 229.836645 
L 276.619951 194.507235 
L 276.94493 262.888761 
L 277.26991 244.235099 
L 277.594889 208.976056 
L 277.919869 231.663574 
L 278.244848 225.441632 
L 278.569828 255.259337 
L 278.894808 223.618282 
L 279.219787 262.271448 
L 279.544767 236.048358 
L 279.869746 250.995568 
L 280.194726 223.818866 
L 280.519705 229.752355 
L 280.844685 228.748016 
L 281.169664 253.049327 
L 281.494644 246.43609 
L 281.819623 217.293787 
L 282.144603 224.67996 
L 282.469582 206.194153 
L 282.794562 201.170236 
L 283.119541 218.235206 
L 283.444521 209.291385 
L 283.7695 220.043329 
L 284.09448 217.696401 
L 284.744439 206.571314 
L 285.069419 211.907523 
L 285.394398 191.85281 
L 285.719378 218.401662 
L 286.044357 204.816111 
L 286.369337 207.469343 
L 286.694316 191.209204 
L 287.019296 217.238925 
L 287.344275 216.667374 
L 287.669255 217.748852 
L 287.994234 217.149875 
L 288.319214 235.369592 
L 288.644193 194.498536 
L 288.969173 212.724972 
L 289.294152 211.531821 
L 289.619132 202.899209 
L 289.944111 207.669029 
L 290.269091 203.469389 
L 290.59407 239.596864 
L 290.91905 217.732186 
L 291.244029 219.085734 
L 291.893989 234.843148 
L 292.218968 203.721288 
L 292.543948 221.049091 
L 292.868927 221.997519 
L 293.193907 240.368281 
L 293.518886 240.047247 
L 293.843866 185.851383 
L 294.168845 222.54518 
L 294.493825 186.786457 
L 294.818804 201.61466 
L 295.143784 223.713379 
L 295.468763 228.512742 
L 295.793743 209.42886 
L 296.118722 232.956938 
L 296.443702 232.731021 
L 296.768681 216.945052 
L 297.093661 207.160143 
L 297.41864 229.337408 
L 297.74362 212.750935 
L 298.0686 211.96318 
L 298.393579 218.823054 
L 298.718559 220.70096 
L 299.043538 218.257335 
L 299.368518 201.058417 
L 299.693497 193.104344 
L 300.343456 215.315443 
L 300.668436 220.001528 
L 300.993415 250.421407 
L 301.318395 240.204029 
L 301.643374 212.862895 
L 301.968354 204.718575 
L 302.293333 242.733367 
L 302.618313 206.423028 
L 302.943292 199.999773 
L 303.268272 216.038079 
L 303.593251 213.942121 
L 303.918231 194.305075 
L 304.24321 199.982121 
L 304.56819 211.716325 
L 304.89317 249.432674 
L 305.543129 190.551291 
L 305.868108 184.781342 
L 306.193088 210.390685 
L 306.518067 223.469577 
L 306.843047 218.100492 
L 307.168026 185.346466 
L 307.493006 193.365774 
L 307.817985 224.132313 
L 308.142965 201.436321 
L 308.467944 210.310468 
L 308.792924 185.193674 
L 309.117903 198.984065 
L 309.442883 205.406093 
L 309.767862 196.525845 
L 310.092842 200.475011 
L 310.417821 207.584939 
L 310.742801 201.886712 
L 311.067781 201.045701 
L 311.39276 198.710737 
L 311.71774 194.273681 
L 312.042719 198.073057 
L 312.367699 217.342535 
L 312.692678 226.749915 
L 313.017658 225.359226 
L 313.342637 209.602723 
L 313.667617 220.111868 
L 313.992596 192.941623 
L 314.317576 214.182763 
L 314.642555 218.106227 
L 314.967535 220.540549 
L 315.292514 200.651804 
L 315.617494 208.181282 
L 315.942473 194.215105 
L 316.267453 204.26911 
L 316.592432 197.121304 
L 316.917412 205.133364 
L 317.242391 221.651068 
L 317.567371 206.398354 
L 317.892351 202.05482 
L 318.21733 229.152208 
L 318.54231 218.927243 
L 318.867289 198.828932 
L 319.192269 218.69622 
L 319.517248 219.46993 
L 319.842228 205.752567 
L 320.167207 205.862392 
L 320.492187 226.1205 
L 320.817166 209.532078 
L 321.142146 231.696946 
L 321.467125 267.408606 
L 321.792105 209.484172 
L 322.117084 210.563148 
L 322.442064 226.353208 
L 322.767043 219.262425 
L 323.092023 204.90254 
L 323.417002 269.606905 
L 323.741982 204.289149 
L 324.066962 234.252088 
L 324.391941 236.393495 
L 324.716921 213.167283 
L 325.0419 248.562586 
L 325.36688 194.814943 
L 325.691859 212.297556 
L 326.016839 206.333884 
L 326.341818 209.600885 
L 326.666798 216.974036 
L 326.991777 187.788136 
L 327.316757 214.342471 
L 327.641736 274.279823 
L 328.291695 217.525702 
L 328.616675 247.989509 
L 329.266634 203.186462 
L 329.591613 261.593138 
L 329.916593 224.516279 
L 330.241572 238.120464 
L 330.566552 226.109894 
L 330.891532 224.272019 
L 331.216511 226.588925 
L 331.541491 239.469289 
L 331.86647 235.451512 
L 332.19145 210.109869 
L 332.516429 234.998173 
L 332.841409 216.873545 
L 333.166388 261.737098 
L 333.491368 194.23134 
L 334.141327 253.408325 
L 334.466306 237.764141 
L 334.791286 251.15748 
L 335.116265 227.425295 
L 335.441245 215.556712 
L 335.766224 265.364169 
L 336.091204 249.811909 
L 336.416183 263.010266 
L 336.741163 223.778976 
L 337.066143 249.813006 
L 337.391122 224.646496 
L 337.716102 223.136399 
L 338.041081 240.936906 
L 338.366061 214.77271 
L 338.69104 235.150363 
L 339.01602 213.869997 
L 339.340999 219.377121 
L 339.665979 213.176898 
L 339.990958 202.594806 
L 340.315938 221.493898 
L 340.640917 198.581582 
L 340.965897 241.329079 
L 341.290876 200.12127 
L 341.615856 225.275937 
L 342.265815 244.699876 
L 342.590794 204.067917 
L 342.915774 191.975407 
L 343.240753 203.385837 
L 343.565733 220.515505 
L 343.890713 194.956403 
L 344.215692 211.697236 
L 344.540672 210.279248 
L 344.865651 202.595742 
L 345.190631 210.090507 
L 345.84059 205.186354 
L 346.165569 235.119566 
L 346.490549 219.016594 
L 346.815528 196.87485 
L 347.140508 237.021888 
L 347.465487 228.901979 
L 347.790467 256.619163 
L 348.115446 209.291071 
L 348.440426 227.375004 
L 348.765405 191.020817 
L 349.090385 211.594822 
L 349.415364 197.973219 
L 349.740344 242.752631 
L 350.390303 198.097648 
L 350.715283 195.737002 
L 351.365242 252.364513 
L 351.690221 201.813175 
L 352.015201 182.42649 
L 352.34018 204.37528 
L 352.66516 200.243801 
L 352.990139 213.970834 
L 353.315119 214.893324 
L 353.640098 217.649376 
L 353.965078 192.471112 
L 354.290057 193.721166 
L 354.615037 231.233138 
L 354.940016 235.373742 
L 355.264996 214.113666 
L 355.589975 231.289222 
L 355.914955 211.460507 
L 356.239934 207.677326 
L 356.564914 220.74567 
L 356.889894 216.015714 
L 357.214873 197.921616 
L 357.539853 219.22172 
L 357.864832 199.382459 
L 358.189812 275.998506 
L 358.514791 224.322605 
L 358.839771 224.50312 
L 359.16475 271.641651 
L 359.48973 205.769709 
L 359.814709 241.250297 
L 360.139689 219.818943 
L 360.464668 209.504759 
L 361.114627 250.398717 
L 361.439607 252.936484 
L 361.764586 203.488467 
L 362.739525 238.694003 
L 363.064505 222.016717 
L 363.714464 229.897078 
L 364.039443 255.964976 
L 364.364423 216.020857 
L 364.689402 239.490949 
L 365.014382 221.793467 
L 365.339361 218.893037 
L 365.664341 195.65616 
L 365.98932 206.634718 
L 366.3143 202.104104 
L 366.639279 203.949478 
L 366.964259 206.882026 
L 367.289238 191.001951 
L 367.614218 240.597176 
L 367.939197 224.352124 
L 368.264177 227.545645 
L 368.589156 209.888948 
L 368.914136 226.141171 
L 369.239115 195.401573 
L 369.564095 187.52046 
L 369.889075 227.236093 
L 370.539034 187.961175 
L 370.864013 200.986542 
L 371.188993 203.904629 
L 371.513972 203.461878 
L 371.838952 234.511127 
L 372.163931 223.623046 
L 372.488911 181.394921 
L 372.81389 208.218709 
L 373.13887 222.378485 
L 373.463849 221.015936 
L 373.788829 206.172178 
L 374.113808 200.890747 
L 374.438788 215.624437 
L 374.763767 193.398262 
L 375.088747 207.341135 
L 375.413726 237.646988 
L 375.738706 201.909606 
L 376.063686 218.5265 
L 376.388665 209.696845 
L 376.713645 224.325941 
L 377.038624 190.864604 
L 377.363604 212.667554 
L 377.688583 205.438226 
L 378.013563 214.253778 
L 378.663522 194.173275 
L 378.988501 219.978716 
L 379.313481 200.079939 
L 379.63846 192.237439 
L 379.96344 228.235703 
L 380.613399 194.31082 
L 380.938378 192.025626 
L 381.263358 188.017331 
L 381.588337 207.057984 
L 381.913317 204.28979 
L 382.238296 197.216714 
L 382.888256 223.379087 
L 383.213235 198.511075 
L 383.538215 225.03441 
L 383.863194 190.709441 
L 384.188174 213.931109 
L 384.513153 210.984534 
L 384.838133 192.116215 
L 385.163112 191.707093 
L 385.488092 217.285062 
L 385.813071 229.913547 
L 386.138051 191.168156 
L 386.46303 207.466722 
L 386.78801 182.679075 
L 387.112989 190.597084 
L 387.437969 209.401029 
L 387.762948 218.985683 
L 388.412907 189.936812 
L 388.737887 192.148204 
L 389.062867 185.48007 
L 389.387846 203.380561 
L 389.712826 200.998366 
L 390.037805 200.996058 
L 390.362785 199.877479 
L 390.687764 207.045474 
L 391.012744 203.751007 
L 391.337723 186.484864 
L 391.987682 210.605074 
L 392.312662 192.790454 
L 392.637641 201.714886 
L 392.962621 219.873845 
L 393.2876 209.541059 
L 393.61258 209.693961 
L 393.937559 185.032747 
L 394.262539 216.886402 
L 394.587518 211.056908 
L 394.912498 207.64288 
L 395.237477 209.582587 
L 395.562457 201.90098 
L 395.887437 202.557333 
L 396.212416 209.558138 
L 396.537396 233.213284 
L 396.862375 196.164254 
L 397.187355 204.043278 
L 397.512334 197.817199 
L 397.837314 203.78884 
L 398.162293 203.979161 
L 398.487273 181.515392 
L 398.487273 181.515392 
" style="fill:none;stroke:#0000ff;stroke-linecap:square;stroke-width:1.5;"/>
   </g>
   <g id="line2d_28">
    <path clip-path="url(#pd016d7fa33)" d="M 73.832727 58.196433 
L 80.657297 58.196433 
L 80.982277 57.497797 
L 108.930516 57.497797 
L 109.255495 53.568 
L 398.487273 53.568 
L 398.487273 53.568 
" style="fill:none;stroke:#ff0000;stroke-linecap:square;stroke-width:1.5;"/>
   </g>
   <g id="patch_3">
    <path d="M 57.6 307.584 
L 57.6 41.472 
" style="fill:none;stroke:#000000;stroke-linecap:square;stroke-linejoin:miter;stroke-width:0.8;"/>
   </g>
   <g id="patch_4">
    <path d="M 414.72 307.584 
L 414.72 41.472 
" style="fill:none;stroke:#000000;stroke-linecap:square;stroke-linejoin:miter;stroke-width:0.8;"/>
   </g>
   <g id="patch_5">
    <path d="M 57.6 307.584 
L 414.72 307.584 
" style="fill:none;stroke:#000000;stroke-linecap:square;stroke-linejoin:miter;stroke-width:0.8;"/>
   </g>
   <g id="patch_6">
    <path d="M 57.6 41.472 
L 414.72 41.472 
" style="fill:none;stroke:#000000;stroke-linecap:square;stroke-linejoin:miter;stroke-width:0.8;"/>
   </g>
   <g id="text_16">
    <!-- Population's average and best fitness -->
    <g transform="translate(123.529687 35.472)scale(0.12 -0.12)">
     <defs>
      <path d="M 19.671875 64.796875 
L 19.671875 37.40625 
L 32.078125 37.40625 
Q 38.96875 37.40625 42.71875 40.96875 
Q 46.484375 44.53125 46.484375 51.125 
Q 46.484375 57.671875 42.71875 61.234375 
Q 38.96875 64.796875 32.078125 64.796875 
z
M 9.8125 72.90625 
L 32.078125 72.90625 
Q 44.34375 72.90625 50.609375 67.359375 
Q 56.890625 61.8125 56.890625 51.125 
Q 56.890625 40.328125 50.609375 34.8125 
Q 44.34375 29.296875 32.078125 29.296875 
L 19.671875 29.296875 
L 19.671875 0 
L 9.8125 0 
z
" id="DejaVuSans-80"/>
      <path d="M 18.109375 8.203125 
L 18.109375 -20.796875 
L 9.078125 -20.796875 
L 9.078125 54.6875 
L 18.109375 54.6875 
L 18.109375 46.390625 
Q 20.953125 51.265625 25.265625 53.625 
Q 29.59375 56 35.59375 56 
Q 45.5625 56 51.78125 48.09375 
Q 58.015625 40.1875 58.015625 27.296875 
Q 58.015625 14.40625 51.78125 6.484375 
Q 45.5625 -1.421875 35.59375 -1.421875 
Q 29.59375 -1.421875 25.265625 0.953125 
Q 20.953125 3.328125 18.109375 8.203125 
z
M 48.6875 27.296875 
Q 48.6875 37.203125 44.609375 42.84375 
Q 40.53125 48.484375 33.40625 48.484375 
Q 26.265625 48.484375 22.1875 42.84375 
Q 18.109375 37.203125 18.109375 27.296875 
Q 18.109375 17.390625 22.1875 11.75 
Q 26.265625 6.109375 33.40625 6.109375 
Q 40.53125 6.109375 44.609375 11.75 
Q 48.6875 17.390625 48.6875 27.296875 
z
" id="DejaVuSans-112"/>
      <path d="M 8.5 21.578125 
L 8.5 54.6875 
L 17.484375 54.6875 
L 17.484375 21.921875 
Q 17.484375 14.15625 20.5 10.265625 
Q 23.53125 6.390625 29.59375 6.390625 
Q 36.859375 6.390625 41.078125 11.03125 
Q 45.3125 15.671875 45.3125 23.6875 
L 45.3125 54.6875 
L 54.296875 54.6875 
L 54.296875 0 
L 45.3125 0 
L 45.3125 8.40625 
Q 42.046875 3.421875 37.71875 1 
Q 33.40625 -1.421875 27.6875 -1.421875 
Q 18.265625 -1.421875 13.375 4.4375 
Q 8.5 10.296875 8.5 21.578125 
z
M 31.109375 56 
z
" id="DejaVuSans-117"/>
      <path d="M 9.421875 75.984375 
L 18.40625 75.984375 
L 18.40625 0 
L 9.421875 0 
z
" id="DejaVuSans-108"/>
      <path d="M 17.921875 72.90625 
L 17.921875 45.796875 
L 9.625 45.796875 
L 9.625 72.90625 
z
" id="DejaVuSans-39"/>
      <path id="DejaVuSans-32"/>
      <path d="M 2.984375 54.6875 
L 12.5 54.6875 
L 29.59375 8.796875 
L 46.6875 54.6875 
L 56.203125 54.6875 
L 35.6875 0 
L 23.484375 0 
z
" id="DejaVuSans-118"/>
      <path d="M 45.40625 27.984375 
Q 45.40625 37.75 41.375 43.109375 
Q 37.359375 48.484375 30.078125 48.484375 
Q 22.859375 48.484375 18.828125 43.109375 
Q 14.796875 37.75 14.796875 27.984375 
Q 14.796875 18.265625 18.828125 12.890625 
Q 22.859375 7.515625 30.078125 7.515625 
Q 37.359375 7.515625 41.375 12.890625 
Q 45.40625 18.265625 45.40625 27.984375 
z
M 54.390625 6.78125 
Q 54.390625 -7.171875 48.1875 -13.984375 
Q 42 -20.796875 29.203125 -20.796875 
Q 24.46875 -20.796875 20.265625 -20.09375 
Q 16.0625 -19.390625 12.109375 -17.921875 
L 12.109375 -9.1875 
Q 16.0625 -11.328125 19.921875 -12.34375 
Q 23.78125 -13.375 27.78125 -13.375 
Q 36.625 -13.375 41.015625 -8.765625 
Q 45.40625 -4.15625 45.40625 5.171875 
L 45.40625 9.625 
Q 42.625 4.78125 38.28125 2.390625 
Q 33.9375 0 27.875 0 
Q 17.828125 0 11.671875 7.65625 
Q 5.515625 15.328125 5.515625 27.984375 
Q 5.515625 40.671875 11.671875 48.328125 
Q 17.828125 56 27.875 56 
Q 33.9375 56 38.28125 53.609375 
Q 42.625 51.21875 45.40625 46.390625 
L 45.40625 54.6875 
L 54.390625 54.6875 
z
" id="DejaVuSans-103"/>
      <path d="M 45.40625 46.390625 
L 45.40625 75.984375 
L 54.390625 75.984375 
L 54.390625 0 
L 45.40625 0 
L 45.40625 8.203125 
Q 42.578125 3.328125 38.25 0.953125 
Q 33.9375 -1.421875 27.875 -1.421875 
Q 17.96875 -1.421875 11.734375 6.484375 
Q 5.515625 14.40625 5.515625 27.296875 
Q 5.515625 40.1875 11.734375 48.09375 
Q 17.96875 56 27.875 56 
Q 33.9375 56 38.25 53.625 
Q 42.578125 51.265625 45.40625 46.390625 
z
M 14.796875 27.296875 
Q 14.796875 17.390625 18.875 11.75 
Q 22.953125 6.109375 30.078125 6.109375 
Q 37.203125 6.109375 41.296875 11.75 
Q 45.40625 17.390625 45.40625 27.296875 
Q 45.40625 37.203125 41.296875 42.84375 
Q 37.203125 48.484375 30.078125 48.484375 
Q 22.953125 48.484375 18.875 42.84375 
Q 14.796875 37.203125 14.796875 27.296875 
z
" id="DejaVuSans-100"/>
      <path d="M 48.6875 27.296875 
Q 48.6875 37.203125 44.609375 42.84375 
Q 40.53125 48.484375 33.40625 48.484375 
Q 26.265625 48.484375 22.1875 42.84375 
Q 18.109375 37.203125 18.109375 27.296875 
Q 18.109375 17.390625 22.1875 11.75 
Q 26.265625 6.109375 33.40625 6.109375 
Q 40.53125 6.109375 44.609375 11.75 
Q 48.6875 17.390625 48.6875 27.296875 
z
M 18.109375 46.390625 
Q 20.953125 51.265625 25.265625 53.625 
Q 29.59375 56 35.59375 56 
Q 45.5625 56 51.78125 48.09375 
Q 58.015625 40.1875 58.015625 27.296875 
Q 58.015625 14.40625 51.78125 6.484375 
Q 45.5625 -1.421875 35.59375 -1.421875 
Q 29.59375 -1.421875 25.265625 0.953125 
Q 20.953125 3.328125 18.109375 8.203125 
L 18.109375 0 
L 9.078125 0 
L 9.078125 75.984375 
L 18.109375 75.984375 
z
" id="DejaVuSans-98"/>
      <path d="M 37.109375 75.984375 
L 37.109375 68.5 
L 28.515625 68.5 
Q 23.6875 68.5 21.796875 66.546875 
Q 19.921875 64.59375 19.921875 59.515625 
L 19.921875 54.6875 
L 34.71875 54.6875 
L 34.71875 47.703125 
L 19.921875 47.703125 
L 19.921875 0 
L 10.890625 0 
L 10.890625 47.703125 
L 2.296875 47.703125 
L 2.296875 54.6875 
L 10.890625 54.6875 
L 10.890625 58.5 
Q 10.890625 67.625 15.140625 71.796875 
Q 19.390625 75.984375 28.609375 75.984375 
z
" id="DejaVuSans-102"/>
     </defs>
     <use xlink:href="#DejaVuSans-80"/>
     <use x="56.677734" xlink:href="#DejaVuSans-111"/>
     <use x="117.859375" xlink:href="#DejaVuSans-112"/>
     <use x="181.335938" xlink:href="#DejaVuSans-117"/>
     <use x="244.714844" xlink:href="#DejaVuSans-108"/>
     <use x="272.498047" xlink:href="#DejaVuSans-97"/>
     <use x="333.777344" xlink:href="#DejaVuSans-116"/>
     <use x="372.986328" xlink:href="#DejaVuSans-105"/>
     <use x="400.769531" xlink:href="#DejaVuSans-111"/>
     <use x="461.951172" xlink:href="#DejaVuSans-110"/>
     <use x="525.330078" xlink:href="#DejaVuSans-39"/>
     <use x="552.820312" xlink:href="#DejaVuSans-115"/>
     <use x="604.919922" xlink:href="#DejaVuSans-32"/>
     <use x="636.707031" xlink:href="#DejaVuSans-97"/>
     <use x="697.986328" xlink:href="#DejaVuSans-118"/>
     <use x="757.166016" xlink:href="#DejaVuSans-101"/>
     <use x="818.689453" xlink:href="#DejaVuSans-114"/>
     <use x="859.802734" xlink:href="#DejaVuSans-97"/>
     <use x="921.082031" xlink:href="#DejaVuSans-103"/>
     <use x="984.558594" xlink:href="#DejaVuSans-101"/>
     <use x="1046.082031" xlink:href="#DejaVuSans-32"/>
     <use x="1077.869141" xlink:href="#DejaVuSans-97"/>
     <use x="1139.148438" xlink:href="#DejaVuSans-110"/>
     <use x="1202.527344" xlink:href="#DejaVuSans-100"/>
     <use x="1266.003906" xlink:href="#DejaVuSans-32"/>
     <use x="1297.791016" xlink:href="#DejaVuSans-98"/>
     <use x="1361.267578" xlink:href="#DejaVuSans-101"/>
     <use x="1422.791016" xlink:href="#DejaVuSans-115"/>
     <use x="1474.890625" xlink:href="#DejaVuSans-116"/>
     <use x="1514.099609" xlink:href="#DejaVuSans-32"/>
     <use x="1545.886719" xlink:href="#DejaVuSans-102"/>
     <use x="1581.091797" xlink:href="#DejaVuSans-105"/>
     <use x="1608.875" xlink:href="#DejaVuSans-116"/>
     <use x="1648.083984" xlink:href="#DejaVuSans-110"/>
     <use x="1711.462891" xlink:href="#DejaVuSans-101"/>
     <use x="1772.986328" xlink:href="#DejaVuSans-115"/>
     <use x="1825.085938" xlink:href="#DejaVuSans-115"/>
    </g>
   </g>
   <g id="legend_1">
    <g id="patch_7">
     <path d="M 64.6 302.584 
L 137.540625 302.584 
Q 139.540625 302.584 139.540625 300.584 
L 139.540625 272.22775 
Q 139.540625 270.22775 137.540625 270.22775 
L 64.6 270.22775 
Q 62.6 270.22775 62.6 272.22775 
L 62.6 300.584 
Q 62.6 302.584 64.6 302.584 
z
" style="fill:#ffffff;opacity:0.8;stroke:#cccccc;stroke-linejoin:miter;"/>
    </g>
    <g id="line2d_29">
     <path d="M 66.6 278.326187 
L 86.6 278.326187 
" style="fill:none;stroke:#0000ff;stroke-linecap:square;stroke-width:1.5;"/>
    </g>
    <g id="line2d_30"/>
    <g id="text_17">
     <!-- average -->
     <g transform="translate(94.6 281.826187)scale(0.1 -0.1)">
      <use xlink:href="#DejaVuSans-97"/>
      <use x="61.279297" xlink:href="#DejaVuSans-118"/>
      <use x="120.458984" xlink:href="#DejaVuSans-101"/>
      <use x="181.982422" xlink:href="#DejaVuSans-114"/>
      <use x="223.095703" xlink:href="#DejaVuSans-97"/>
      <use x="284.375" xlink:href="#DejaVuSans-103"/>
      <use x="347.851562" xlink:href="#DejaVuSans-101"/>
     </g>
    </g>
    <g id="line2d_31">
     <path d="M 66.6 293.004312 
L 86.6 293.004312 
" style="fill:none;stroke:#ff0000;stroke-linecap:square;stroke-width:1.5;"/>
    </g>
    <g id="line2d_32"/>
    <g id="text_18">
     <!-- best -->
     <g transform="translate(94.6 296.504312)scale(0.1 -0.1)">
      <use xlink:href="#DejaVuSans-98"/>
      <use x="63.476562" xlink:href="#DejaVuSans-101"/>
      <use x="125" xlink:href="#DejaVuSans-115"/>
      <use x="177.099609" xlink:href="#DejaVuSans-116"/>
     </g>
    </g>
   </g>
  </g>
 </g>
 <defs>
  <clipPath id="pd016d7fa33">
   <rect height="266.112" width="357.12" x="57.6" y="41.472"/>
  </clipPath>
 </defs>
</svg>
