<?xml version="1.0" encoding="UTF-8" standalone="no"?>
<!DOCTYPE svg PUBLIC "-//W3C//DTD SVG 1.1//EN"
 "http://www.w3.org/Graphics/SVG/1.1/DTD/svg11.dtd">
<!-- Generated by graphviz version 2.43.0 (0)
 -->
<!-- Title: %3 Pages: 1 -->
<svg width="300pt" height="371pt"
 viewBox="0.00 0.00 300.03 370.82" xmlns="http://www.w3.org/2000/svg" xmlns:xlink="http://www.w3.org/1999/xlink">
<g id="graph0" class="graph" transform="scale(1 1) rotate(0) translate(4 366.82)">
<title>%3</title>
<polygon fill="white" stroke="transparent" points="-4,4 -4,-366.82 296.03,-366.82 296.03,4 -4,4"/>
<!-- SLL -->
<g id="node1" class="node">
<title>SLL</title>
<polygon fill="lightgray" stroke="black" points="83.64,-362.82 51.64,-362.82 51.64,-344.82 83.64,-344.82 83.64,-362.82"/>
<text text-anchor="middle" x="67.64" y="-351.62" font-family="Times,serif" font-size="9.00">SLL</text>
</g>
<!-- 134 -->
<g id="node7" class="node">
<title>134</title>
<ellipse fill="white" stroke="black" cx="67.64" cy="-287.61" rx="21.43" ry="21.43"/>
<text text-anchor="middle" x="67.64" y="-285.41" font-family="Times,serif" font-size="9.00">134</text>
</g>
<!-- SLL&#45;&gt;134 -->
<g id="edge1" class="edge">
<title>SLL&#45;&gt;134</title>
<path fill="none" stroke="red" stroke-width="0.36" d="M67.64,-344.69C67.64,-338.14 67.64,-328.51 67.64,-319.07"/>
<polygon fill="red" stroke="red" stroke-width="0.36" points="71.14,-319.06 67.64,-309.06 64.14,-319.06 71.14,-319.06"/>
</g>
<!-- 135 -->
<g id="node8" class="node">
<title>135</title>
<ellipse fill="white" stroke="black" cx="197.64" cy="-21.21" rx="21.43" ry="21.43"/>
<text text-anchor="middle" x="197.64" y="-19.01" font-family="Times,serif" font-size="9.00">135</text>
</g>
<!-- SLL&#45;&gt;135 -->
<g id="edge2" class="edge">
<title>SLL&#45;&gt;135</title>
<path fill="none" stroke="red" stroke-width="0.11" d="M61.25,-344.76C54.7,-336.21 44.51,-322.13 37.64,-308.82 20.6,-275.79 15.19,-266.97 8.64,-230.39 -3.52,-162.45 -8.38,-127.01 40.64,-78.43 75.02,-44.35 131.47,-30.81 166.49,-25.51"/>
<polygon fill="red" stroke="red" stroke-width="0.11" points="167.19,-28.95 176.62,-24.12 166.23,-22.01 167.19,-28.95"/>
</g>
<!-- 136 -->
<g id="node9" class="node">
<title>136</title>
<ellipse fill="white" stroke="black" cx="173.64" cy="-197.87" rx="21.43" ry="21.43"/>
<text text-anchor="middle" x="173.64" y="-195.67" font-family="Times,serif" font-size="9.00">136</text>
</g>
<!-- SLL&#45;&gt;136 -->
<g id="edge17" class="edge">
<title>SLL&#45;&gt;136</title>
<path fill="none" stroke="red" stroke-width="0.33" d="M83.79,-348.31C102.11,-342.34 131.52,-330.02 147.64,-308.82 165.04,-285.93 171.04,-253.22 172.99,-229.42"/>
<polygon fill="red" stroke="red" stroke-width="0.33" points="176.5,-229.39 173.62,-219.19 169.51,-228.95 176.5,-229.39"/>
</g>
<!-- SL -->
<g id="node2" class="node">
<title>SL</title>
<polygon fill="lightgray" stroke="black" points="278.14,-296.61 251.14,-296.61 251.14,-278.61 278.14,-278.61 278.14,-296.61"/>
<text text-anchor="middle" x="264.64" y="-285.41" font-family="Times,serif" font-size="9.00">SL</text>
</g>
<!-- Pedal -->
<g id="node6" class="node">
<title>Pedal</title>
<ellipse fill="lightblue" stroke="black" cx="197.64" cy="-103.88" rx="25.41" ry="25.41"/>
<text text-anchor="middle" x="197.64" y="-101.68" font-family="Times,serif" font-size="9.00">Pedal</text>
</g>
<!-- SL&#45;&gt;Pedal -->
<g id="edge9" class="edge">
<title>SL&#45;&gt;Pedal</title>
<path fill="none" stroke="red" stroke-width="0.23" d="M263.73,-278.36C261.32,-258.32 253.72,-205.74 236.64,-165.34 231.95,-154.24 225.25,-142.92 218.73,-133.12"/>
<polygon fill="red" stroke="red" stroke-width="0.23" points="221.42,-130.85 212.86,-124.6 215.65,-134.82 221.42,-130.85"/>
</g>
<!-- SL&#45;&gt;135 -->
<g id="edge3" class="edge">
<title>SL&#45;&gt;135</title>
<path fill="none" stroke="red" stroke-width="0.13" d="M265.05,-278.58C265.89,-259.03 267.15,-207.45 259.64,-165.34 252.52,-125.39 248.48,-115.35 231.64,-78.43 226.91,-68.05 220.68,-57.19 214.85,-47.83"/>
<polygon fill="red" stroke="red" stroke-width="0.13" points="217.78,-45.91 209.45,-39.36 211.88,-49.67 217.78,-45.91"/>
</g>
<!-- SL&#45;&gt;136 -->
<g id="edge4" class="edge">
<title>SL&#45;&gt;136</title>
<path fill="none" stroke="red" stroke-width="0.41" d="M256.24,-278.51C242.65,-265.4 215.38,-239.11 195.89,-220.32"/>
<polygon fill="red" stroke="red" stroke-width="0.41" points="198.22,-217.7 188.59,-213.28 193.36,-222.74 198.22,-217.7"/>
</g>
<!-- SC -->
<g id="node3" class="node">
<title>SC</title>
<polygon fill="lightgray" stroke="black" points="138.64,-296.61 110.64,-296.61 110.64,-278.61 138.64,-278.61 138.64,-296.61"/>
<text text-anchor="middle" x="124.64" y="-285.41" font-family="Times,serif" font-size="9.00">SC</text>
</g>
<!-- Steering -->
<g id="node5" class="node">
<title>Steering</title>
<ellipse fill="lightblue" stroke="black" cx="63.64" cy="-197.87" rx="32.55" ry="32.55"/>
<text text-anchor="middle" x="63.64" y="-195.67" font-family="Times,serif" font-size="9.00">Steering</text>
</g>
<!-- SC&#45;&gt;Steering -->
<g id="edge10" class="edge">
<title>SC&#45;&gt;Steering</title>
<path fill="none" stroke="green" stroke-width="0.54" d="M119.01,-278.51C111.88,-268.25 99.13,-249.91 87.66,-233.42"/>
<polygon fill="green" stroke="green" stroke-width="0.54" points="90.4,-231.22 81.82,-225.01 84.65,-235.22 90.4,-231.22"/>
</g>
<!-- SC&#45;&gt;Pedal -->
<g id="edge11" class="edge">
<title>SC&#45;&gt;Pedal</title>
<path fill="none" stroke="red" stroke-width="0.17" d="M124.37,-278.49C124.02,-258.31 125.03,-204.63 143.64,-165.34 150.23,-151.42 161.05,-138.35 171.29,-127.95"/>
<polygon fill="red" stroke="red" stroke-width="0.17" points="173.84,-130.36 178.57,-120.88 168.96,-125.34 173.84,-130.36"/>
</g>
<!-- SC&#45;&gt;136 -->
<g id="edge5" class="edge">
<title>SC&#45;&gt;136</title>
<path fill="none" stroke="green" stroke-width="0.24" stroke-dasharray="1,5" d="M129.16,-278.51C135.78,-266.66 148.41,-244.04 158.53,-225.92"/>
<polygon fill="green" stroke="green" stroke-width="0.24" points="161.73,-227.38 163.55,-216.94 155.61,-223.96 161.73,-227.38"/>
</g>
<!-- SR -->
<g id="node4" class="node">
<title>SR</title>
<polygon fill="lightgray" stroke="black" points="236.64,-362.82 208.64,-362.82 208.64,-344.82 236.64,-344.82 236.64,-362.82"/>
<text text-anchor="middle" x="222.64" y="-351.62" font-family="Times,serif" font-size="9.00">SR</text>
</g>
<!-- SR&#45;&gt;Pedal -->
<g id="edge12" class="edge">
<title>SR&#45;&gt;Pedal</title>
<path fill="none" stroke="red" stroke-width="0.5" d="M221.81,-344.57C218.62,-312.93 207.05,-198.18 201.15,-139.68"/>
<polygon fill="red" stroke="red" stroke-width="0.5" points="204.6,-139.05 200.12,-129.45 197.64,-139.75 204.6,-139.05"/>
</g>
<!-- SR&#45;&gt;134 -->
<g id="edge6" class="edge">
<title>SR&#45;&gt;134</title>
<path fill="none" stroke="green" stroke-width="0.39" d="M208.5,-348.63C185.56,-341.62 139.01,-326.53 101.64,-308.82 99.17,-307.65 96.64,-306.35 94.13,-304.99"/>
<polygon fill="green" stroke="green" stroke-width="0.39" points="95.71,-301.87 85.29,-299.95 92.25,-307.95 95.71,-301.87"/>
</g>
<!-- SR&#45;&gt;135 -->
<g id="edge7" class="edge">
<title>SR&#45;&gt;135</title>
<path fill="none" stroke="red" stroke-width="0.17" d="M236.88,-347.85C252.56,-341.52 276.97,-328.92 287.64,-308.82 296.48,-292.16 288.75,-285.22 287.64,-266.39 282.63,-181.8 297.28,-152.23 255.64,-78.43 247.41,-63.84 234.24,-50.63 222.52,-40.68"/>
<polygon fill="red" stroke="red" stroke-width="0.17" points="224.69,-37.94 214.72,-34.34 220.27,-43.37 224.69,-37.94"/>
</g>
<!-- Pedal&#45;&gt;135 -->
<g id="edge16" class="edge">
<title>Pedal&#45;&gt;135</title>
<path fill="none" stroke="green" stroke-width="0.95" d="M197.64,-78.24C197.64,-70.23 197.64,-61.23 197.64,-52.84"/>
<polygon fill="green" stroke="green" stroke-width="0.95" points="201.14,-52.64 197.64,-42.64 194.14,-52.64 201.14,-52.64"/>
</g>
<!-- 134&#45;&gt;Steering -->
<g id="edge14" class="edge">
<title>134&#45;&gt;Steering</title>
<path fill="none" stroke="red" stroke-width="0.46" d="M66.71,-266.26C66.36,-258.53 65.94,-249.43 65.54,-240.45"/>
<polygon fill="red" stroke="red" stroke-width="0.46" points="69.03,-240.28 65.08,-230.45 62.04,-240.6 69.03,-240.28"/>
</g>
<!-- 134&#45;&gt;135 -->
<g id="edge15" class="edge">
<title>134&#45;&gt;135</title>
<path fill="none" stroke="red" stroke-width="0.46" d="M51.98,-273.12C41.15,-262.71 27.66,-247.26 21.64,-230.39 11.92,-203.16 9.22,-191.45 21.64,-165.34 52.32,-100.83 127.87,-55.89 169.31,-35.17"/>
<polygon fill="red" stroke="red" stroke-width="0.46" points="170.88,-38.29 178.34,-30.77 167.82,-32 170.88,-38.29"/>
</g>
<!-- 134&#45;&gt;136 -->
<g id="edge13" class="edge">
<title>134&#45;&gt;136</title>
<path fill="none" stroke="green" stroke-width="0.21" stroke-dasharray="1,5" d="M83.74,-273.28C101.35,-258.7 129.76,-235.19 149.92,-218.5"/>
<polygon fill="green" stroke="green" stroke-width="0.21" points="152.26,-221.1 157.74,-212.03 147.8,-215.71 152.26,-221.1"/>
</g>
<!-- 136&#45;&gt;Pedal -->
<g id="edge8" class="edge">
<title>136&#45;&gt;Pedal</title>
<path fill="none" stroke="green" stroke-width="0.14" stroke-dasharray="1,5" d="M178.85,-176.91C181.76,-165.73 185.48,-151.5 188.83,-138.65"/>
<polygon fill="green" stroke="green" stroke-width="0.14" points="192.28,-139.28 191.42,-128.72 185.51,-137.51 192.28,-139.28"/>
</g>
</g>
</svg>
